HIERARCHY
ROOT Hips
{
  OFFSET 120.747 100.897 258.972
  CHANNELS 6 Xposition Yposition Zposition Zrotation Xrotation Yrotation
  JOINT RightUpLeg
  {
    OFFSET -8.9458 -8.66707 0.101652
    CHANNELS 3 Zrotation Xrotation Yrotation
    JOINT RightLeg
    {
      OFFSET 0 -44.4227 1.3727
      CHANNELS 3 Zrotation Xrotation Yrotation
      JOINT RightFoot
      {
        OFFSET 0.253549 -42.0924 -1.46059
        CHANNELS 3 Zrotation Xrotation Yrotation
        JOINT RightToes
        {
          OFFSET 0.04 -4.41509 8.4991
          CHANNELS 3 Zrotation Xrotation Yrotation
          End Site
          {
            OFFSET -0.08 -0.137448 9.77979
          }
        }
      }
    }
  }
  JOINT Spine
  {
    OFFSET 0 11.8905 0
    CHANNELS 3 Zrotation Xrotation Yrotation
    JOINT Spine1
    {
      OFFSET 0 25.6574 0.127663
      CHANNELS 3 Zrotation Xrotation Yrotation
      JOINT HEad
      {
        OFFSET 0 8.73416 0.011341
        CHANNELS 3 Zrotation Xrotation Yrotation
        End Site
        {
          OFFSET -0.29 12.7742 2.51395
        }
      }
      JOINT LeftShoulder1
      {
        OFFSET 8.99 -0.362252 -0.22
        CHANNELS 3 Zrotation Xrotation Yrotation
        JOINT LeftArm
        {
          OFFSET 10.2827 -0.00338 0.322123
          CHANNELS 3 Zrotation Xrotation Yrotation
          JOINT LeftForeArm
          {
            OFFSET 32.7669 0.099144 -1.42434
            CHANNELS 3 Zrotation Xrotation Yrotation
            JOINT LeftHand
            {
              OFFSET 27.5643 0.085362 1.02216
              CHANNELS 3 Zrotation Xrotation Yrotation
              End Site
              {
                OFFSET 16.7443 -0.6 1.50291
              }
            }
          }
        }
      }
      JOINT RightShoulder
      {
        OFFSET -8.99 -0.362252 -0.22
        CHANNELS 3 Zrotation Xrotation Yrotation
        JOINT RightArm
        {
          OFFSET -10.2827 -0.00338 0.322123
          CHANNELS 3 Zrotation Xrotation Yrotation
          JOINT RightForeArm
          {
            OFFSET -32.8971 0.099144 -1.42434
            CHANNELS 3 Zrotation Xrotation Yrotation
            JOINT RightHand
            {
              OFFSET -27.4921 0.085362 1.02216
              CHANNELS 3 Zrotation Xrotation Yrotation
              End Site
              {
                OFFSET -16.6312 -0.6 1.50291
              }
            }
          }
        }
      }
    }
  }
  JOINT LeftUpLeg
  {
    OFFSET 8.9458 -8.66707 0.101652
    CHANNELS 3 Zrotation Xrotation Yrotation
    JOINT LeftLeg
    {
      OFFSET 0 -44.4227 1.3727
      CHANNELS 3 Zrotation Xrotation Yrotation
      JOINT LeftFoot
      {
        OFFSET -0.253549 -42.0924 -1.46059
        CHANNELS 3 Zrotation Xrotation Yrotation
        JOINT LeftToes
        {
          OFFSET -0.04 -4.41509 8.4991
          CHANNELS 3 Zrotation Xrotation Yrotation
          End Site
          {
            OFFSET 0.08 -0.047448 9.77979
          }
        }
      }
    }
  }
}
MOTION
Frames:	7
Frame Time:	0.0166667
120.747 100.897 258.972 -3.90742 7.49752 -179.664 -5.52436 -21.1149 3.30483 13.4405 46.6776 -25.7498 7.45112 10.0249 -1.03513 -19.5705 -11.0564 -1.56357 -6.07721 8.31239 -0.396476 -5.31328 10.907 0.271933 6.67991 -9.01198 -3.14282 -1.31695e-015 0 -2.98177e-016 -93.1085 -25.0053 -33.9135 -1.00422 13.2681 1.28992 0.368473 9.90896 -0.00117927 43.9284 -0.14724 -3.79518 67.9585 -30.8098 41.8991 1.00171 13.2747 -1.2896 -0.369625 9.91382 0.00119887 -7.64021 1.59853 -8.83992 -5.65638 21.593 6.60072 4.6339 3.65257 -0.230792 14.8076 -10.1433 -1.07371 
120.769 100.814 257.225 -3.71718 7.39908 -179.446 -5.19728 -21.6632 4.70189 13.4748 42.0189 -28.6475 6.10403 9.48708 -0.85793 -19.9626 -10.64 0.444474 -6.25498 8.507 -0.632378 -5.40556 10.1843 0.0418878 7.36709 -8.68711 -2.97708 1.76421e-015 1.59028e-015 2.98177e-016 -92.6087 -23.4237 -34.5762 -1.00422 13.2681 1.28992 0.368473 9.90896 -0.00117927 45.3612 -0.208836 -3.90345 67.2812 -31.804 42.0163 1.00171 13.2747 -1.2896 -0.369625 9.91382 0.00119887 -7.35769 2.58485 -8.13149 -5.50595 21.6594 6.00063 4.65941 3.33103 -0.221062 15.9278 -11.333 -0.578411 
120.798 100.711 255.465 -3.5732 7.27161 -179.22 -4.86708 -22.1171 5.95647 12.76 37.3681 -30.5173 5.11325 9.05114 -0.726194 -19.6116 -9.94277 2.04539 -6.40001 8.68626 -0.914146 -5.56786 9.45002 -0.212728 8.04186 -8.37613 -2.78003 1.2921e-015 3.18055e-015 -1.98785e-016 -92.127 -22.0642 -35.2594 -1.00422 13.2681 1.28992 0.368473 9.90896 -0.00117927 46.7182 -0.285387 -4.03611 66.6685 -32.708 42.0744 1.00171 13.2747 -1.2896 -0.369625 9.91382 0.00119887 -7.14159 3.52897 -7.56104 -5.40155 21.7508 5.48641 4.65554 3.06229 -0.211854 16.8646 -12.449 -0.0141051 
120.839 100.539 253.673 -3.57867 7.06556 -178.985 -4.61388 -22.3734 6.89353 11.468 32.5634 -30.4288 5.20847 8.91018 -0.732237 -17.0163 -8.6251 2.08024 -6.45457 8.82379 -1.35929 -5.97863 8.67197 -0.557496 8.7195 -8.08255 -2.44961 8.94531e-016 -1.59028e-015 1.98785e-016 -91.7415 -21.3517 -35.9612 -1.00422 13.2681 1.28992 0.368473 9.90896 -0.00117927 47.907 -0.413154 -4.25376 66.2362 -33.325 41.9362 1.00171 13.2747 -1.2896 -0.369625 9.91382 0.00119887 -7.08203 4.3458 -7.38373 -5.44575 21.9154 5.25258 4.55275 3.00079 -0.205292 17.2745 -13.4456 0.824232 
120.898 100.363 251.86 -3.60925 6.81392 -178.716 -4.35712 -22.4413 7.40409 9.8392 27.7473 -29.1845 5.60484 8.89328 -0.77699 -13.5461 -6.66228 2.43194 -6.4666 8.937 -1.79789 -6.36675 7.90148 -0.897431 9.30998 -7.85162 -2.16547 -4.47266e-016 -1.59028e-015 -3.97569e-016 -91.4798 -20.7859 -36.6858 -1.00422 13.2681 1.28992 0.368473 9.90896 -0.00117927 48.9015 -0.543105 -4.47219 65.8499 -33.8783 41.6693 1.00171 13.2747 -1.2896 -0.369625 9.91382 0.00119887 -7.02829 5.10303 -7.38026 -5.51963 22.1205 5.06139 4.44151 2.89431 -0.197017 17.3783 -14.1627 1.5861 
120.985 100.245 250.042 -3.53334 6.5048 -178.365 -3.97491 -22.3113 7.35401 7.90732 22.8327 -27.1377 5.65858 8.8949 -0.781087 -10.1038 -3.28453 5.66466 -6.47256 9.03559 -2.0578 -6.42495 7.16386 -1.14112 9.72364 -7.75157 -2.11078 -1.2424e-015 0 -0 -91.3895 -19.9036 -37.4754 -1.00422 13.2681 1.28992 0.368473 9.90896 -0.00117927 49.6365 -0.629259 -4.60984 65.3744 -34.5989 41.3072 1.00171 13.2747 -1.2896 -0.369625 9.91382 0.00119887 -6.84872 5.81523 -7.46961 -5.51601 22.3497 4.71085 4.41735 2.40754 -0.179898 17.0504 -14.2853 1.94983 
121.094 100.151 248.182 -3.47449 6.2231 -177.996 -3.6315 -21.9264 6.65916 5.96964 18.0199 -23.926 5.6824 8.91178 -0.778867 -7.55583 -0.398965 8.49903 -6.45345 9.11878 -2.26259 -6.41883 6.50583 -1.3465 9.98732 -7.71886 -2.17111 1.98785e-016 -1.59028e-015 3.97569e-016 -91.4106 -19.0743 -38.2483 -1.00422 13.2681 1.28992 0.368473 9.90896 -0.00117927 50.1417 -0.699071 -4.7193 64.9331 -35.2714 40.8439 1.00171 13.2747 -1.2896 -0.369625 9.91382 0.00119887 -6.61876 6.56174 -7.492 -5.49543 22.5959 4.28537 4.3963 1.94417 -0.164465 16.8933 -14.2468 2.00944 
